<svg width="276" height="100" viewBox="0 0 276 100" fill="none" xmlns="http://www.w3.org/2000/svg">
<path d="M0 20C0 8.9543 8.95431 0 20 0H80C91.0457 0 100 8.95431 100 20V80C100 91.0457 91.0457 100 80 100H20C8.9543 100 0 91.0457 0 80V20Z" fill="url(#paint0_linear_38_182)"/>
<path d="M49.1429 68.1335C46.0686 70.7112 41.7102 72 36.0676 72C30.425 72 26.5141 70.6916 24.3349 68.0749C22.7783 66.2784 22 63.7984 22 60.6349C22 59.2289 22.1557 57.6862 22.467 56.0068L27.1951 29H37.702L32.9739 55.7725C32.8182 56.7489 32.7404 57.7643 32.7404 58.8188C32.7404 61.5527 34.3748 62.9196 37.6436 62.9196C39.5893 62.9196 41.1459 62.4119 42.3134 61.3965C43.4808 60.381 44.298 58.5064 44.765 55.7725L47.4931 42H58L55.2719 56.0068C54.299 61.4746 52.256 65.5168 49.1429 68.1335Z" fill="white"/>
<path d="M49 33.3077C49 31.1197 49.5108 29.5299 50.5323 28.5385C51.5904 27.5128 53.2139 27 55.403 27C58.4677 27 60 28.265 60 30.7949C60 32.9487 59.471 34.5214 58.4129 35.5128C57.3914 36.5043 55.7678 37 53.5423 37C50.5141 37 49 35.7692 49 33.3077Z" fill="white"/>
<path d="M61 68.9296C61 66.5258 61.524 64.7793 62.5719 63.6901C63.6573 62.5634 65.3228 62 67.5684 62C70.7123 62 72.2842 63.3897 72.2842 66.169C72.2842 68.5352 71.7415 70.2629 70.6561 71.3521C69.6082 72.4413 67.9427 72.9859 65.6596 72.9859C62.5532 72.9859 61 71.6338 61 68.9296Z" fill="white"/>
<path d="M68.3036 27H78L72.6964 57H63L68.3036 27Z" fill="white"/>
<path d="M141.6 60.92C139.493 62.68 136.507 63.56 132.64 63.56C128.773 63.56 126.093 62.6667 124.6 60.88C123.533 59.6533 123 57.96 123 55.8C123 54.84 123.107 53.7867 123.32 52.64L126.56 34.2H133.76L130.52 52.48C130.413 53.1467 130.36 53.84 130.36 54.56C130.36 56.4267 131.48 57.36 133.72 57.36C135.053 57.36 136.12 57.0133 136.92 56.32C137.72 55.6267 138.28 54.3467 138.6 52.48L141.84 34.2H149.04L145.8 52.64C145.133 56.3733 143.733 59.1333 141.6 60.92ZM169.536 47.92C169.536 48.8 169.27 49.6133 168.736 50.36H162.176C162.39 50.2 162.496 49.9333 162.496 49.56C162.496 49.1867 162.283 48.8933 161.856 48.68C161.43 48.44 160.883 48.32 160.216 48.32C158.216 48.32 157.216 48.9333 157.216 50.16C157.216 50.64 157.59 50.9867 158.336 51.2C159.083 51.4133 159.99 51.5867 161.056 51.72C162.123 51.8533 163.19 52.0533 164.256 52.32C165.323 52.56 166.23 53.0533 166.976 53.8C167.723 54.5467 168.096 55.5467 168.096 56.8C168.096 59.0133 167.203 60.6933 165.416 61.84C163.656 62.9867 161.083 63.56 157.696 63.56C154.31 63.56 151.936 63.0133 150.576 61.92C149.51 61.0667 148.976 59.8933 148.976 58.4C148.976 57.9733 149.016 57.5333 149.096 57.08L155.776 57C155.723 57.3733 155.936 57.7067 156.416 58C156.923 58.2667 157.656 58.4 158.616 58.4C159.576 58.4 160.27 58.3067 160.696 58.12C161.123 57.9067 161.336 57.52 161.336 56.96C161.336 56.5867 160.963 56.3333 160.216 56.2C159.47 56.04 158.55 55.9067 157.456 55.8C156.39 55.6933 155.31 55.52 154.216 55.28C153.15 55.04 152.243 54.5333 151.496 53.76C150.75 52.9867 150.376 51.9733 150.376 50.72C150.376 48.2933 151.31 46.4267 153.176 45.12C155.07 43.8133 157.79 43.16 161.336 43.16C166.803 43.16 169.536 44.7467 169.536 47.92ZM188.049 34.2C191.089 34.2 193.249 34.8667 194.529 36.2C195.489 37.2133 195.969 38.4933 195.969 40.04C195.969 40.5733 195.916 41.1333 195.809 41.72L195.449 43.64C195.156 45.16 194.583 46.3467 193.729 47.2C192.903 48.0533 192.169 48.48 191.529 48.48L191.489 48.8C192.236 48.8 192.996 49.2133 193.769 50.04C194.543 50.8667 194.929 51.84 194.929 52.96C194.929 53.4133 194.876 53.8933 194.769 54.4L194.529 55.64C194.103 57.9333 193.076 59.7333 191.449 61.04C189.849 62.3467 187.609 63 184.729 63H171.369L176.449 34.2H188.049ZM184.449 51.24H180.649L179.689 56.76H183.489C183.543 56.76 183.596 56.76 183.649 56.76C184.876 56.76 185.849 56.48 186.569 55.92C187.289 55.3333 187.649 54.6267 187.649 53.8C187.649 52.0933 186.583 51.24 184.449 51.24ZM185.529 40.44H182.529L181.489 46.4H184.449C187.009 46.4 188.289 45.28 188.289 43.04C188.289 42.2667 188.049 41.64 187.569 41.16C187.116 40.68 186.436 40.44 185.529 40.44ZM205.858 63.56C200.312 63.56 197.538 61.64 197.538 57.8C197.538 57.2667 197.592 56.6933 197.698 56.08L198.538 51.12C198.992 48.56 200.165 46.6 202.058 45.24C203.978 43.8533 206.512 43.16 209.658 43.16C215.018 43.16 217.698 45.1867 217.698 49.24C217.698 49.8267 217.645 50.4667 217.538 51.16L217.058 54H204.858L204.698 54.92C204.645 55.24 204.618 55.5333 204.618 55.8C204.618 57.2667 205.485 58 207.218 58C207.858 58 208.405 57.8 208.858 57.4C209.312 57 209.578 56.5333 209.658 56L216.298 56.08C215.418 61.0667 211.938 63.56 205.858 63.56ZM210.658 51.56C210.765 51.1067 210.818 50.6933 210.818 50.32C210.818 49.92 210.645 49.52 210.298 49.12C209.952 48.72 209.392 48.52 208.618 48.52C207.872 48.52 207.178 48.7733 206.538 49.28C205.925 49.7867 205.498 50.5467 205.258 51.56H210.658ZM239.849 47.92C239.849 48.8 239.582 49.6133 239.049 50.36H232.489C232.702 50.2 232.809 49.9333 232.809 49.56C232.809 49.1867 232.595 48.8933 232.169 48.68C231.742 48.44 231.195 48.32 230.529 48.32C228.529 48.32 227.529 48.9333 227.529 50.16C227.529 50.64 227.902 50.9867 228.649 51.2C229.395 51.4133 230.302 51.5867 231.369 51.72C232.435 51.8533 233.502 52.0533 234.569 52.32C235.635 52.56 236.542 53.0533 237.289 53.8C238.035 54.5467 238.409 55.5467 238.409 56.8C238.409 59.0133 237.515 60.6933 235.729 61.84C233.969 62.9867 231.395 63.56 228.009 63.56C224.622 63.56 222.249 63.0133 220.889 61.92C219.822 61.0667 219.289 59.8933 219.289 58.4C219.289 57.9733 219.329 57.5333 219.409 57.08L226.089 57C226.035 57.3733 226.249 57.7067 226.729 58C227.235 58.2667 227.969 58.4 228.929 58.4C229.889 58.4 230.582 58.3067 231.009 58.12C231.435 57.9067 231.649 57.52 231.649 56.96C231.649 56.5867 231.275 56.3333 230.529 56.2C229.782 56.04 228.862 55.9067 227.769 55.8C226.702 55.6933 225.622 55.52 224.529 55.28C223.462 55.04 222.555 54.5333 221.809 53.76C221.062 52.9867 220.689 51.9733 220.689 50.72C220.689 48.2933 221.622 46.4267 223.489 45.12C225.382 43.8133 228.102 43.16 231.649 43.16C237.115 43.16 239.849 44.7467 239.849 47.92ZM250.362 63.56C247.269 63.56 245.042 62.8667 243.682 61.48C242.669 60.4667 242.162 59.1067 242.162 57.4C242.162 56.84 242.215 56.24 242.322 55.6L245.042 40.12L252.362 37.08L251.202 43.76H262.242L261.242 49.4H250.202L249.402 53.92C249.295 54.4267 249.242 54.88 249.242 55.28C249.242 56.96 250.042 57.8 251.642 57.8C252.495 57.8 253.202 57.44 253.762 56.72C254.349 56 254.749 55.04 254.962 53.84H261.602C260.482 60.32 256.735 63.56 250.362 63.56ZM271.075 52.52H265.755L268.635 31.36H275.435L271.075 52.52ZM263.315 60.68C263.315 58.9733 263.688 57.7333 264.435 56.96C265.182 56.16 266.368 55.76 267.995 55.76C270.235 55.76 271.355 56.7467 271.355 58.72C271.355 60.4 270.968 61.6267 270.195 62.4C269.448 63.1733 268.262 63.56 266.635 63.56C264.422 63.56 263.315 62.6 263.315 60.68Z" fill="white"/>
<defs>
<linearGradient id="paint0_linear_38_182" x1="100" y1="0" x2="0" y2="100" gradientUnits="userSpaceOnUse">
<stop stop-color="#FFDF94"/>
<stop offset="1" stop-color="#FF754F"/>
</linearGradient>
</defs>
</svg>
